<?xml version="1.0" encoding="UTF-8"?>
<svg id="Layer_1" xmlns="http://www.w3.org/2000/svg" version="1.1" viewBox="0 0 373.5 195.8">
  <!-- Generator: Adobe Illustrator 30.0.0, SVG Export Plug-In . SVG Version: 2.1.1 Build 123)  -->
  <defs>
    <style>
      .st0 {
        fill: #ed145b;
      }

      .st1 {
        fill: #123f6d;
      }
    </style>
  </defs>
  <g>
    <path class="st1" d="M0,1.9h13.9v82.3H0V1.9Z"/>
    <path class="st1" d="M151.4,0C126.4,0,107.5,18.6,107.5,43.1s3.6,20.4,9.8,27.7h-8.6c-5,0-8.2-3.2-8.2-8.2v-29.2C100.5,13.2,87.1,0,67.1,0s-23.2,5.2-29.7,14.4V1.9h-13.8v82.3h13.9v-46.1c0-14.8,10-24.7,25.2-24.7s24,9.7,24,24.4v27.7c0,12.1,6.9,18.7,19.4,18.7h31.9c4.2,1.3,8.8,1.9,13.5,1.9,24.8,0,43.7-18.6,43.7-43.1C195.1,18.6,176.3,0,151.4,0ZM151.4,72.8c-16.9,0-29.5-12.7-29.5-29.7s12.6-29.7,29.5-29.7,29.4,12.7,29.4,29.7-12.6,29.7-29.4,29.7Z"/>
    <path class="st1" d="M189.8,1.9h15.8l27.7,65.7L261,1.9h15.5l-36.1,82.3h-14.5L189.8,1.9Z"/>
    <path class="st1" d="M269.9,43.1C269.9,18.6,287.5,0,311,0s25,6.5,31.9,16.8V1.9h13.9v60.7c0,5,3.2,8.2,8.2,8.2h1.6v13.4h-4.4c-11.1,0-17.7-5.3-19-15.2-6.9,10.5-18.4,17.1-32.3,17.1-23.4,0-41-18.5-41-43ZM343,43.1c0-16.9-12.6-29.7-29.4-29.7s-29.5,12.7-29.5,29.7,12.6,29.7,29.5,29.7,29.4-12.8,29.4-29.7Z"/>
  </g>
  <g>
    <path class="st0" d="M32,143.9c0-29.6,22.8-52,52.9-52s45.2,15.8,49.6,38.3h-17.7c-4.1-13.2-16.5-22.2-31.9-22.2s-35.6,15.4-35.6,35.8,15.2,35.8,35.6,35.8,27.8-9,31.9-22.2h17.7c-4.5,22.6-24.5,38.3-49.6,38.3-30.2,0-52.9-22.2-52.9-51.8Z"/>
    <path class="st0" d="M142.7,94.3h16.7v99.3h-16.7v-99.3Z"/>
    <path class="st0" d="M373.5,143.9c0-29.6-22.6-52-52.7-52s-52.7,22.4-52.7,52,4.4,24.6,11.9,33.5h-8.7c-6,0-9.9-3.9-9.9-9.9v-35.2c0-24.3-16.2-40.3-40.3-40.3s-28,6.2-35.8,17.3v-15h-16.7v99.3h16.7v-55.7c0-17.9,12.1-29.8,30.4-29.8s29,11.7,29,29.4v33.5c0,14.6,8.4,22.6,23.4,22.6h37c5.2,1.5,10.7,2.3,16.5,2.3,23.4,0,42.6-12.8,50.4-31.9h-18.7c-5.6,9.9-17.7,16.5-31.5,16.5s-32.7-12.1-35.6-29.6h87.2c0-2.2.1-4.7.1-7ZM286.1,135.9c3.3-16.9,16.9-28.6,34.6-28.6s32.1,12.1,35,28.6h-69.6Z"/>
  </g>
</svg>