<?xml version="1.0" encoding="utf-8"?>
<!-- Generator: Adobe Illustrator 30.0.0, SVG Export Plug-In . SVG Version: 9.03 Build 0)  -->
<svg version="1.0" id="Layer_1" xmlns="http://www.w3.org/2000/svg" xmlns:xlink="http://www.w3.org/1999/xlink" x="0px" y="0px"
	 viewBox="0 0 373.5 195.8" style="enable-background:new 0 0 373.5 195.8;" xml:space="preserve">
<style type="text/css">
	.st0{fill:#FFFFFF;}
</style>
<g>
	<path class="st0" d="M0,1.9h13.9v82.3H0V1.9z"/>
	<path class="st0" d="M151.4,0c-25,0-43.9,18.6-43.9,43.1c0,10.8,3.6,20.4,9.8,27.7h-8.6c-5,0-8.2-3.2-8.2-8.2V33.4
		C100.5,13.2,87.1,0,67.1,0C54.2,0,43.9,5.2,37.4,14.4V1.9H23.6v82.3h13.9V38.1c0-14.8,10-24.7,25.2-24.7c14.7,0,24,9.7,24,24.4
		v27.7c0,12.1,6.9,18.7,19.4,18.7H138c4.2,1.3,8.8,1.9,13.5,1.9c24.8,0,43.7-18.6,43.7-43.1C195.1,18.6,176.3,0,151.4,0z
		 M151.4,72.8c-16.9,0-29.5-12.7-29.5-29.7s12.6-29.7,29.5-29.7c16.8,0,29.4,12.7,29.4,29.7S168.2,72.8,151.4,72.8z"/>
	<path class="st0" d="M189.8,1.9h15.8l27.7,65.7L261,1.9h15.5l-36.1,82.3h-14.5L189.8,1.9z"/>
	<path class="st0" d="M269.9,43.1C269.9,18.6,287.5,0,311,0c13.7,0,25,6.5,31.9,16.8V1.9h13.9v60.7c0,5,3.2,8.2,8.2,8.2h1.6v13.4
		h-4.4c-11.1,0-17.7-5.3-19-15.2c-6.9,10.5-18.4,17.1-32.3,17.1C287.5,86.1,269.9,67.6,269.9,43.1z M343,43.1
		c0-16.9-12.6-29.7-29.4-29.7c-16.9,0-29.5,12.7-29.5,29.7s12.6,29.7,29.5,29.7C330.4,72.8,343,60,343,43.1z"/>
</g>
<g>
	<path class="st0" d="M32,143.9c0-29.6,22.8-52,52.9-52c25.1,0,45.2,15.8,49.6,38.3h-17.7C112.7,117,100.3,108,84.9,108
		c-20.4,0-35.6,15.4-35.6,35.8s15.2,35.8,35.6,35.8c15.4,0,27.8-9,31.9-22.2h17.7C130,180,110,195.7,84.9,195.7
		C54.7,195.8,32,173.5,32,143.9z"/>
	<path class="st0" d="M142.7,94.3h16.7v99.3h-16.7V94.3z"/>
	<path class="st0" d="M373.5,143.9c0-29.6-22.6-52-52.7-52c-30,0-52.7,22.4-52.7,52c0,13,4.4,24.6,11.9,33.5h-8.7
		c-6,0-9.9-3.9-9.9-9.9v-35.2c0-24.3-16.2-40.3-40.3-40.3c-15.6,0-28,6.2-35.8,17.3v-15h-16.7v99.3h16.7v-55.7
		c0-17.9,12.1-29.8,30.4-29.8c17.7,0,29,11.7,29,29.4V171c0,14.6,8.4,22.6,23.4,22.6h37c5.2,1.5,10.7,2.3,16.5,2.3
		c23.4,0,42.6-12.8,50.4-31.9h-18.7c-5.6,9.9-17.7,16.5-31.5,16.5c-18.7,0-32.7-12.1-35.6-29.6h87.2
		C373.3,148.7,373.5,146.2,373.5,143.9z M286.1,135.9c3.3-16.9,16.9-28.6,34.6-28.6c18.1,0,32.1,12.1,35,28.6H286.1z"/>
</g>
</svg>
